<svg width="100%" viewBox="0 0 760 1132" role="img" xmlns="http://www.w3.org/2000/svg">
<defs><marker id="arrow" viewBox="0 0 10 10" refX="8" refY="5"
markerWidth="6" markerHeight="6" orient="auto-start-reverse">
<path d="M2 1L8 5L2 9" fill="none" stroke="#555" stroke-width="1.5"
stroke-linecap="round" stroke-linejoin="round"/></marker></defs>
<style>
.th{font:600 15px sans-serif;fill:#1a1a1a;}
.ts{font:12px sans-serif;fill:#333;}
.lab{font:600 12px sans-serif;fill:#1a1a1a;}
.dim{font:11px sans-serif;fill:#666;}
.mini{font:9px sans-serif;fill:#999;}
.idx{font:10px sans-serif;}
.cell{font:10px sans-serif;fill:#1a1a1a;}
.op{font:600 15px sans-serif;fill:#555;}
.code{font:11px ui-monospace,Consolas,monospace;fill:#333;}
</style>
<text class="th" x="380" y="28" text-anchor="middle">MultiHeadAttentionWrapper — v2 (toy values, indexed)</text>
<text class="ts" x="380" y="48" text-anchor="middle">Sentence "Your journey starts with one step". Row = token id. Highlighted: id 1 = “journey”.</text>
<g opacity="0.4"><rect x="331.0" y="78" width="42" height="18" fill="#eef0f4" stroke="#8a93a6" stroke-width="0.6"/><rect x="373.0" y="78" width="42" height="18" fill="#eef0f4" stroke="#8a93a6" stroke-width="0.6"/><rect x="415.0" y="78" width="42" height="18" fill="#eef0f4" stroke="#8a93a6" stroke-width="0.6"/><rect x="331.0" y="96" width="42" height="18" fill="#eef0f4" stroke="#8a93a6" stroke-width="0.6"/><rect x="373.0" y="96" width="42" height="18" fill="#eef0f4" stroke="#8a93a6" stroke-width="0.6"/><rect x="415.0" y="96" width="42" height="18" fill="#eef0f4" stroke="#8a93a6" stroke-width="0.6"/><rect x="331.0" y="114" width="42" height="18" fill="#eef0f4" stroke="#8a93a6" stroke-width="0.6"/><rect x="373.0" y="114" width="42" height="18" fill="#eef0f4" stroke="#8a93a6" stroke-width="0.6"/><rect x="415.0" y="114" width="42" height="18" fill="#eef0f4" stroke="#8a93a6" stroke-width="0.6"/><rect x="331.0" y="132" width="42" height="18" fill="#eef0f4" stroke="#8a93a6" stroke-width="0.6"/><rect x="373.0" y="132" width="42" height="18" fill="#eef0f4" stroke="#8a93a6" stroke-width="0.6"/><rect x="415.0" y="132" width="42" height="18" fill="#eef0f4" stroke="#8a93a6" stroke-width="0.6"/><rect x="331.0" y="150" width="42" height="18" fill="#eef0f4" stroke="#8a93a6" stroke-width="0.6"/><rect x="373.0" y="150" width="42" height="18" fill="#eef0f4" stroke="#8a93a6" stroke-width="0.6"/><rect x="415.0" y="150" width="42" height="18" fill="#eef0f4" stroke="#8a93a6" stroke-width="0.6"/><rect x="331.0" y="168" width="42" height="18" fill="#eef0f4" stroke="#8a93a6" stroke-width="0.6"/><rect x="373.0" y="168" width="42" height="18" fill="#eef0f4" stroke="#8a93a6" stroke-width="0.6"/><rect x="415.0" y="168" width="42" height="18" fill="#eef0f4" stroke="#8a93a6" stroke-width="0.6"/><rect x="331.0" y="78" width="126" height="108" fill="none" stroke="#8a93a6" stroke-width="1.4"/></g><line x1="317.0" y1="92" x2="331.0" y2="78" stroke="#8a93a6" stroke-width="0.8" opacity="0.6"/><line x1="443.0" y1="92" x2="457.0" y2="78" stroke="#8a93a6" stroke-width="0.8" opacity="0.6"/><line x1="443.0" y1="200" x2="457.0" y2="186" stroke="#8a93a6" stroke-width="0.8" opacity="0.6"/><g opacity="1.0"><rect x="317.0" y="92" width="42" height="18" fill="#eef0f4" stroke="#8a93a6" stroke-width="0.6"/><text class="cell" x="338.0" y="101.5" text-anchor="middle" dominant-baseline="central">0.43</text><rect x="359.0" y="92" width="42" height="18" fill="#eef0f4" stroke="#8a93a6" stroke-width="0.6"/><text class="cell" x="380.0" y="101.5" text-anchor="middle" dominant-baseline="central">0.15</text><rect x="401.0" y="92" width="42" height="18" fill="#eef0f4" stroke="#8a93a6" stroke-width="0.6"/><text class="cell" x="422.0" y="101.5" text-anchor="middle" dominant-baseline="central">0.89</text><rect x="317.0" y="110" width="42" height="18" fill="#eef0f4" stroke="#8a93a6" stroke-width="0.6"/><text class="cell" x="338.0" y="119.5" text-anchor="middle" dominant-baseline="central">0.55</text><rect x="359.0" y="110" width="42" height="18" fill="#eef0f4" stroke="#8a93a6" stroke-width="0.6"/><text class="cell" x="380.0" y="119.5" text-anchor="middle" dominant-baseline="central">0.87</text><rect x="401.0" y="110" width="42" height="18" fill="#eef0f4" stroke="#8a93a6" stroke-width="0.6"/><text class="cell" x="422.0" y="119.5" text-anchor="middle" dominant-baseline="central">0.66</text><rect x="317.0" y="128" width="42" height="18" fill="#eef0f4" stroke="#8a93a6" stroke-width="0.6"/><text class="cell" x="338.0" y="137.5" text-anchor="middle" dominant-baseline="central">0.57</text><rect x="359.0" y="128" width="42" height="18" fill="#eef0f4" stroke="#8a93a6" stroke-width="0.6"/><text class="cell" x="380.0" y="137.5" text-anchor="middle" dominant-baseline="central">0.85</text><rect x="401.0" y="128" width="42" height="18" fill="#eef0f4" stroke="#8a93a6" stroke-width="0.6"/><text class="cell" x="422.0" y="137.5" text-anchor="middle" dominant-baseline="central">0.64</text><rect x="317.0" y="146" width="42" height="18" fill="#eef0f4" stroke="#8a93a6" stroke-width="0.6"/><text class="cell" x="338.0" y="155.5" text-anchor="middle" dominant-baseline="central">0.22</text><rect x="359.0" y="146" width="42" height="18" fill="#eef0f4" stroke="#8a93a6" stroke-width="0.6"/><text class="cell" x="380.0" y="155.5" text-anchor="middle" dominant-baseline="central">0.58</text><rect x="401.0" y="146" width="42" height="18" fill="#eef0f4" stroke="#8a93a6" stroke-width="0.6"/><text class="cell" x="422.0" y="155.5" text-anchor="middle" dominant-baseline="central">0.33</text><rect x="317.0" y="164" width="42" height="18" fill="#eef0f4" stroke="#8a93a6" stroke-width="0.6"/><text class="cell" x="338.0" y="173.5" text-anchor="middle" dominant-baseline="central">0.77</text><rect x="359.0" y="164" width="42" height="18" fill="#eef0f4" stroke="#8a93a6" stroke-width="0.6"/><text class="cell" x="380.0" y="173.5" text-anchor="middle" dominant-baseline="central">0.25</text><rect x="401.0" y="164" width="42" height="18" fill="#eef0f4" stroke="#8a93a6" stroke-width="0.6"/><text class="cell" x="422.0" y="173.5" text-anchor="middle" dominant-baseline="central">0.10</text><rect x="317.0" y="182" width="42" height="18" fill="#eef0f4" stroke="#8a93a6" stroke-width="0.6"/><text class="cell" x="338.0" y="191.5" text-anchor="middle" dominant-baseline="central">0.05</text><rect x="359.0" y="182" width="42" height="18" fill="#eef0f4" stroke="#8a93a6" stroke-width="0.6"/><text class="cell" x="380.0" y="191.5" text-anchor="middle" dominant-baseline="central">0.80</text><rect x="401.0" y="182" width="42" height="18" fill="#eef0f4" stroke="#8a93a6" stroke-width="0.6"/><text class="cell" x="422.0" y="191.5" text-anchor="middle" dominant-baseline="central">0.55</text><rect x="317.0" y="92" width="126" height="108" fill="none" stroke="#8a93a6" stroke-width="1.4"/></g><rect x="317.0" y="110" width="126" height="18" fill="#ffd54f" fill-opacity="0.30" stroke="#d59a2f" stroke-width="2"/><text class="idx" style="font-weight:400;fill:#999" x="311.0" y="101.5" text-anchor="end" dominant-baseline="central">0</text><text class="idx" style="font-weight:700;fill:#d59a2f" x="311.0" y="119.5" text-anchor="end" dominant-baseline="central">1</text><text class="idx" style="font-weight:400;fill:#999" x="311.0" y="137.5" text-anchor="end" dominant-baseline="central">2</text><text class="idx" style="font-weight:400;fill:#999" x="311.0" y="155.5" text-anchor="end" dominant-baseline="central">3</text><text class="idx" style="font-weight:400;fill:#999" x="311.0" y="173.5" text-anchor="end" dominant-baseline="central">4</text><text class="idx" style="font-weight:400;fill:#999" x="311.0" y="191.5" text-anchor="end" dominant-baseline="central">5</text>
<text class="mini" x="338.0" y="88" text-anchor="middle">e0</text>
<text class="mini" x="380.0" y="88" text-anchor="middle">e1</text>
<text class="mini" x="422.0" y="88" text-anchor="middle">e2</text>
<text class="dim" style="font-weight:400;fill:#555" x="299.0" y="101.5" text-anchor="end" dominant-baseline="central">Your</text>
<text class="dim" style="font-weight:700;fill:#d59a2f" x="299.0" y="119.5" text-anchor="end" dominant-baseline="central">journey</text>
<text class="dim" style="font-weight:400;fill:#555" x="299.0" y="137.5" text-anchor="end" dominant-baseline="central">starts</text>
<text class="dim" style="font-weight:400;fill:#555" x="299.0" y="155.5" text-anchor="end" dominant-baseline="central">with</text>
<text class="dim" style="font-weight:400;fill:#555" x="299.0" y="173.5" text-anchor="end" dominant-baseline="central">one</text>
<text class="dim" style="font-weight:400;fill:#555" x="299.0" y="191.5" text-anchor="end" dominant-baseline="central">step</text>
<text class="lab" x="380" y="220" text-anchor="middle">X</text>
<text class="dim" x="380" y="236" text-anchor="middle">(2, 6, 3) · batch 2 · 6 tokens · d_in 3</text>
<text class="mini" x="461.0" y="76">x[1] (slice 1)</text>
<text class="mini" x="315.0" y="211" text-anchor="end">x[0] (slice 0)</text>
<text class="code" x="469.0" y="119.5" dominant-baseline="central" fill="#b5791f">◄ x[:, 1, :] = journey’s embedding</text>
<line x1="380" y1="244" x2="380" y2="260" stroke="#555" stroke-width="1.5"/>
<text class="ts" x="390" y="258">same x to every head</text>
<line x1="380" y1="260" x2="200" y2="290" stroke="#555" stroke-width="1.5" marker-end="url(#arrow)"/>
<line x1="380" y1="260" x2="560" y2="290" stroke="#555" stroke-width="1.5" marker-end="url(#arrow)"/>
<text class="lab" x="200" y="308" text-anchor="middle" fill="#5b6ee0">head 0 · CausalAttention</text>
<g opacity="0.4"><rect x="172.0" y="316" width="42" height="18" fill="#e9ecfb" stroke="#5b6ee0" stroke-width="0.6"/><rect x="214.0" y="316" width="42" height="18" fill="#e9ecfb" stroke="#5b6ee0" stroke-width="0.6"/><rect x="172.0" y="334" width="42" height="18" fill="#e9ecfb" stroke="#5b6ee0" stroke-width="0.6"/><rect x="214.0" y="334" width="42" height="18" fill="#e9ecfb" stroke="#5b6ee0" stroke-width="0.6"/><rect x="172.0" y="352" width="42" height="18" fill="#e9ecfb" stroke="#5b6ee0" stroke-width="0.6"/><rect x="214.0" y="352" width="42" height="18" fill="#e9ecfb" stroke="#5b6ee0" stroke-width="0.6"/><rect x="172.0" y="370" width="42" height="18" fill="#e9ecfb" stroke="#5b6ee0" stroke-width="0.6"/><rect x="214.0" y="370" width="42" height="18" fill="#e9ecfb" stroke="#5b6ee0" stroke-width="0.6"/><rect x="172.0" y="388" width="42" height="18" fill="#e9ecfb" stroke="#5b6ee0" stroke-width="0.6"/><rect x="214.0" y="388" width="42" height="18" fill="#e9ecfb" stroke="#5b6ee0" stroke-width="0.6"/><rect x="172.0" y="406" width="42" height="18" fill="#e9ecfb" stroke="#5b6ee0" stroke-width="0.6"/><rect x="214.0" y="406" width="42" height="18" fill="#e9ecfb" stroke="#5b6ee0" stroke-width="0.6"/><rect x="172.0" y="316" width="84" height="108" fill="none" stroke="#5b6ee0" stroke-width="1.4"/></g><line x1="158.0" y1="330" x2="172.0" y2="316" stroke="#5b6ee0" stroke-width="0.8" opacity="0.6"/><line x1="242.0" y1="330" x2="256.0" y2="316" stroke="#5b6ee0" stroke-width="0.8" opacity="0.6"/><line x1="242.0" y1="438" x2="256.0" y2="424" stroke="#5b6ee0" stroke-width="0.8" opacity="0.6"/><g opacity="1.0"><rect x="158.0" y="330" width="42" height="18" fill="#e9ecfb" stroke="#5b6ee0" stroke-width="0.6"/><text class="cell" x="179.0" y="339.5" text-anchor="middle" dominant-baseline="central">-0.45</text><rect x="200.0" y="330" width="42" height="18" fill="#e9ecfb" stroke="#5b6ee0" stroke-width="0.6"/><text class="cell" x="221.0" y="339.5" text-anchor="middle" dominant-baseline="central">0.22</text><rect x="158.0" y="348" width="42" height="18" fill="#e9ecfb" stroke="#5b6ee0" stroke-width="0.6"/><text class="cell" x="179.0" y="357.5" text-anchor="middle" dominant-baseline="central">-0.59</text><rect x="200.0" y="348" width="42" height="18" fill="#e9ecfb" stroke="#5b6ee0" stroke-width="0.6"/><text class="cell" x="221.0" y="357.5" text-anchor="middle" dominant-baseline="central">0.01</text><rect x="158.0" y="366" width="42" height="18" fill="#e9ecfb" stroke="#5b6ee0" stroke-width="0.6"/><text class="cell" x="179.0" y="375.5" text-anchor="middle" dominant-baseline="central">-0.63</text><rect x="200.0" y="366" width="42" height="18" fill="#e9ecfb" stroke="#5b6ee0" stroke-width="0.6"/><text class="cell" x="221.0" y="375.5" text-anchor="middle" dominant-baseline="central">-0.06</text><rect x="158.0" y="384" width="42" height="18" fill="#e9ecfb" stroke="#5b6ee0" stroke-width="0.6"/><text class="cell" x="179.0" y="393.5" text-anchor="middle" dominant-baseline="central">-0.57</text><rect x="200.0" y="384" width="42" height="18" fill="#e9ecfb" stroke="#5b6ee0" stroke-width="0.6"/><text class="cell" x="221.0" y="393.5" text-anchor="middle" dominant-baseline="central">-0.08</text><rect x="158.0" y="402" width="42" height="18" fill="#e9ecfb" stroke="#5b6ee0" stroke-width="0.6"/><text class="cell" x="179.0" y="411.5" text-anchor="middle" dominant-baseline="central">-0.55</text><rect x="200.0" y="402" width="42" height="18" fill="#e9ecfb" stroke="#5b6ee0" stroke-width="0.6"/><text class="cell" x="221.0" y="411.5" text-anchor="middle" dominant-baseline="central">-0.10</text><rect x="158.0" y="420" width="42" height="18" fill="#e9ecfb" stroke="#5b6ee0" stroke-width="0.6"/><text class="cell" x="179.0" y="429.5" text-anchor="middle" dominant-baseline="central">-0.53</text><rect x="200.0" y="420" width="42" height="18" fill="#e9ecfb" stroke="#5b6ee0" stroke-width="0.6"/><text class="cell" x="221.0" y="429.5" text-anchor="middle" dominant-baseline="central">-0.11</text><rect x="158.0" y="330" width="84" height="108" fill="none" stroke="#5b6ee0" stroke-width="1.4"/></g><rect x="158.0" y="348" width="84" height="18" fill="#ffd54f" fill-opacity="0.30" stroke="#d59a2f" stroke-width="2"/><text class="idx" style="font-weight:400;fill:#999" x="152.0" y="339.5" text-anchor="end" dominant-baseline="central">0</text><text class="idx" style="font-weight:700;fill:#d59a2f" x="152.0" y="357.5" text-anchor="end" dominant-baseline="central">1</text><text class="idx" style="font-weight:400;fill:#999" x="152.0" y="375.5" text-anchor="end" dominant-baseline="central">2</text><text class="idx" style="font-weight:400;fill:#999" x="152.0" y="393.5" text-anchor="end" dominant-baseline="central">3</text><text class="idx" style="font-weight:400;fill:#999" x="152.0" y="411.5" text-anchor="end" dominant-baseline="central">4</text><text class="idx" style="font-weight:400;fill:#999" x="152.0" y="429.5" text-anchor="end" dominant-baseline="central">5</text>
<text class="mini" x="179.0" y="326" text-anchor="middle">0</text>
<text class="mini" x="221.0" y="326" text-anchor="middle">1</text>
<text class="dim" x="200" y="456" text-anchor="middle">own W_q,W_k,W_v → (2, 6, 2)</text>
<text class="lab" x="560" y="308" text-anchor="middle" fill="#3f9142">head 1 · CausalAttention</text>
<g opacity="0.4"><rect x="532.0" y="316" width="42" height="18" fill="#e6f5e6" stroke="#4caf50" stroke-width="0.6"/><rect x="574.0" y="316" width="42" height="18" fill="#e6f5e6" stroke="#4caf50" stroke-width="0.6"/><rect x="532.0" y="334" width="42" height="18" fill="#e6f5e6" stroke="#4caf50" stroke-width="0.6"/><rect x="574.0" y="334" width="42" height="18" fill="#e6f5e6" stroke="#4caf50" stroke-width="0.6"/><rect x="532.0" y="352" width="42" height="18" fill="#e6f5e6" stroke="#4caf50" stroke-width="0.6"/><rect x="574.0" y="352" width="42" height="18" fill="#e6f5e6" stroke="#4caf50" stroke-width="0.6"/><rect x="532.0" y="370" width="42" height="18" fill="#e6f5e6" stroke="#4caf50" stroke-width="0.6"/><rect x="574.0" y="370" width="42" height="18" fill="#e6f5e6" stroke="#4caf50" stroke-width="0.6"/><rect x="532.0" y="388" width="42" height="18" fill="#e6f5e6" stroke="#4caf50" stroke-width="0.6"/><rect x="574.0" y="388" width="42" height="18" fill="#e6f5e6" stroke="#4caf50" stroke-width="0.6"/><rect x="532.0" y="406" width="42" height="18" fill="#e6f5e6" stroke="#4caf50" stroke-width="0.6"/><rect x="574.0" y="406" width="42" height="18" fill="#e6f5e6" stroke="#4caf50" stroke-width="0.6"/><rect x="532.0" y="316" width="84" height="108" fill="none" stroke="#4caf50" stroke-width="1.4"/></g><line x1="518.0" y1="330" x2="532.0" y2="316" stroke="#4caf50" stroke-width="0.8" opacity="0.6"/><line x1="602.0" y1="330" x2="616.0" y2="316" stroke="#4caf50" stroke-width="0.8" opacity="0.6"/><line x1="602.0" y1="438" x2="616.0" y2="424" stroke="#4caf50" stroke-width="0.8" opacity="0.6"/><g opacity="1.0"><rect x="518.0" y="330" width="42" height="18" fill="#e6f5e6" stroke="#4caf50" stroke-width="0.6"/><text class="cell" x="539.0" y="339.5" text-anchor="middle" dominant-baseline="central">0.48</text><rect x="560.0" y="330" width="42" height="18" fill="#e6f5e6" stroke="#4caf50" stroke-width="0.6"/><text class="cell" x="581.0" y="339.5" text-anchor="middle" dominant-baseline="central">0.11</text><rect x="518.0" y="348" width="42" height="18" fill="#e6f5e6" stroke="#4caf50" stroke-width="0.6"/><text class="cell" x="539.0" y="357.5" text-anchor="middle" dominant-baseline="central">0.59</text><rect x="560.0" y="348" width="42" height="18" fill="#e6f5e6" stroke="#4caf50" stroke-width="0.6"/><text class="cell" x="581.0" y="357.5" text-anchor="middle" dominant-baseline="central">0.33</text><rect x="518.0" y="366" width="42" height="18" fill="#e6f5e6" stroke="#4caf50" stroke-width="0.6"/><text class="cell" x="539.0" y="375.5" text-anchor="middle" dominant-baseline="central">0.62</text><rect x="560.0" y="366" width="42" height="18" fill="#e6f5e6" stroke="#4caf50" stroke-width="0.6"/><text class="cell" x="581.0" y="375.5" text-anchor="middle" dominant-baseline="central">0.39</text><rect x="518.0" y="384" width="42" height="18" fill="#e6f5e6" stroke="#4caf50" stroke-width="0.6"/><text class="cell" x="539.0" y="393.5" text-anchor="middle" dominant-baseline="central">0.55</text><rect x="560.0" y="384" width="42" height="18" fill="#e6f5e6" stroke="#4caf50" stroke-width="0.6"/><text class="cell" x="581.0" y="393.5" text-anchor="middle" dominant-baseline="central">0.36</text><rect x="518.0" y="402" width="42" height="18" fill="#e6f5e6" stroke="#4caf50" stroke-width="0.6"/><text class="cell" x="539.0" y="411.5" text-anchor="middle" dominant-baseline="central">0.53</text><rect x="560.0" y="402" width="42" height="18" fill="#e6f5e6" stroke="#4caf50" stroke-width="0.6"/><text class="cell" x="581.0" y="411.5" text-anchor="middle" dominant-baseline="central">0.34</text><rect x="518.0" y="420" width="42" height="18" fill="#e6f5e6" stroke="#4caf50" stroke-width="0.6"/><text class="cell" x="539.0" y="429.5" text-anchor="middle" dominant-baseline="central">0.51</text><rect x="560.0" y="420" width="42" height="18" fill="#e6f5e6" stroke="#4caf50" stroke-width="0.6"/><text class="cell" x="581.0" y="429.5" text-anchor="middle" dominant-baseline="central">0.35</text><rect x="518.0" y="330" width="84" height="108" fill="none" stroke="#4caf50" stroke-width="1.4"/></g><rect x="518.0" y="348" width="84" height="18" fill="#ffd54f" fill-opacity="0.30" stroke="#d59a2f" stroke-width="2"/><text class="idx" style="font-weight:400;fill:#999" x="512.0" y="339.5" text-anchor="end" dominant-baseline="central">0</text><text class="idx" style="font-weight:700;fill:#d59a2f" x="512.0" y="357.5" text-anchor="end" dominant-baseline="central">1</text><text class="idx" style="font-weight:400;fill:#999" x="512.0" y="375.5" text-anchor="end" dominant-baseline="central">2</text><text class="idx" style="font-weight:400;fill:#999" x="512.0" y="393.5" text-anchor="end" dominant-baseline="central">3</text><text class="idx" style="font-weight:400;fill:#999" x="512.0" y="411.5" text-anchor="end" dominant-baseline="central">4</text><text class="idx" style="font-weight:400;fill:#999" x="512.0" y="429.5" text-anchor="end" dominant-baseline="central">5</text>
<text class="mini" x="539.0" y="326" text-anchor="middle">0</text>
<text class="mini" x="581.0" y="326" text-anchor="middle">1</text>
<text class="dim" x="560" y="456" text-anchor="middle">own W_q,W_k,W_v → (2, 6, 2)</text>
<line x1="200" y1="462" x2="340" y2="500" stroke="#555" stroke-width="1.5" marker-end="url(#arrow)"/>
<line x1="560" y1="462" x2="420" y2="500" stroke="#555" stroke-width="1.5" marker-end="url(#arrow)"/>
<text class="op" x="380" y="478" text-anchor="middle">torch.cat(dim=-1)</text>
<g opacity="0.4"><rect x="310.0" y="504" width="42" height="18" fill="#e9ecfb" stroke="#888" stroke-width="0.6"/><rect x="352.0" y="504" width="42" height="18" fill="#e9ecfb" stroke="#888" stroke-width="0.6"/><rect x="394.0" y="504" width="42" height="18" fill="#e6f5e6" stroke="#888" stroke-width="0.6"/><rect x="436.0" y="504" width="42" height="18" fill="#e6f5e6" stroke="#888" stroke-width="0.6"/><rect x="310.0" y="522" width="42" height="18" fill="#e9ecfb" stroke="#888" stroke-width="0.6"/><rect x="352.0" y="522" width="42" height="18" fill="#e9ecfb" stroke="#888" stroke-width="0.6"/><rect x="394.0" y="522" width="42" height="18" fill="#e6f5e6" stroke="#888" stroke-width="0.6"/><rect x="436.0" y="522" width="42" height="18" fill="#e6f5e6" stroke="#888" stroke-width="0.6"/><rect x="310.0" y="540" width="42" height="18" fill="#e9ecfb" stroke="#888" stroke-width="0.6"/><rect x="352.0" y="540" width="42" height="18" fill="#e9ecfb" stroke="#888" stroke-width="0.6"/><rect x="394.0" y="540" width="42" height="18" fill="#e6f5e6" stroke="#888" stroke-width="0.6"/><rect x="436.0" y="540" width="42" height="18" fill="#e6f5e6" stroke="#888" stroke-width="0.6"/><rect x="310.0" y="558" width="42" height="18" fill="#e9ecfb" stroke="#888" stroke-width="0.6"/><rect x="352.0" y="558" width="42" height="18" fill="#e9ecfb" stroke="#888" stroke-width="0.6"/><rect x="394.0" y="558" width="42" height="18" fill="#e6f5e6" stroke="#888" stroke-width="0.6"/><rect x="436.0" y="558" width="42" height="18" fill="#e6f5e6" stroke="#888" stroke-width="0.6"/><rect x="310.0" y="576" width="42" height="18" fill="#e9ecfb" stroke="#888" stroke-width="0.6"/><rect x="352.0" y="576" width="42" height="18" fill="#e9ecfb" stroke="#888" stroke-width="0.6"/><rect x="394.0" y="576" width="42" height="18" fill="#e6f5e6" stroke="#888" stroke-width="0.6"/><rect x="436.0" y="576" width="42" height="18" fill="#e6f5e6" stroke="#888" stroke-width="0.6"/><rect x="310.0" y="594" width="42" height="18" fill="#e9ecfb" stroke="#888" stroke-width="0.6"/><rect x="352.0" y="594" width="42" height="18" fill="#e9ecfb" stroke="#888" stroke-width="0.6"/><rect x="394.0" y="594" width="42" height="18" fill="#e6f5e6" stroke="#888" stroke-width="0.6"/><rect x="436.0" y="594" width="42" height="18" fill="#e6f5e6" stroke="#888" stroke-width="0.6"/><rect x="310.0" y="504" width="168" height="108" fill="none" stroke="#888" stroke-width="1.4"/></g><line x1="296.0" y1="518" x2="310.0" y2="504" stroke="#888" stroke-width="0.8" opacity="0.6"/><line x1="464.0" y1="518" x2="478.0" y2="504" stroke="#888" stroke-width="0.8" opacity="0.6"/><line x1="464.0" y1="626" x2="478.0" y2="612" stroke="#888" stroke-width="0.8" opacity="0.6"/><g opacity="1.0"><rect x="296.0" y="518" width="42" height="18" fill="#e9ecfb" stroke="#888" stroke-width="0.6"/><text class="cell" x="317.0" y="527.5" text-anchor="middle" dominant-baseline="central">-0.45</text><rect x="338.0" y="518" width="42" height="18" fill="#e9ecfb" stroke="#888" stroke-width="0.6"/><text class="cell" x="359.0" y="527.5" text-anchor="middle" dominant-baseline="central">0.22</text><rect x="380.0" y="518" width="42" height="18" fill="#e6f5e6" stroke="#888" stroke-width="0.6"/><text class="cell" x="401.0" y="527.5" text-anchor="middle" dominant-baseline="central">0.48</text><rect x="422.0" y="518" width="42" height="18" fill="#e6f5e6" stroke="#888" stroke-width="0.6"/><text class="cell" x="443.0" y="527.5" text-anchor="middle" dominant-baseline="central">0.11</text><rect x="296.0" y="536" width="42" height="18" fill="#e9ecfb" stroke="#888" stroke-width="0.6"/><text class="cell" x="317.0" y="545.5" text-anchor="middle" dominant-baseline="central">-0.59</text><rect x="338.0" y="536" width="42" height="18" fill="#e9ecfb" stroke="#888" stroke-width="0.6"/><text class="cell" x="359.0" y="545.5" text-anchor="middle" dominant-baseline="central">0.01</text><rect x="380.0" y="536" width="42" height="18" fill="#e6f5e6" stroke="#888" stroke-width="0.6"/><text class="cell" x="401.0" y="545.5" text-anchor="middle" dominant-baseline="central">0.59</text><rect x="422.0" y="536" width="42" height="18" fill="#e6f5e6" stroke="#888" stroke-width="0.6"/><text class="cell" x="443.0" y="545.5" text-anchor="middle" dominant-baseline="central">0.33</text><rect x="296.0" y="554" width="42" height="18" fill="#e9ecfb" stroke="#888" stroke-width="0.6"/><text class="cell" x="317.0" y="563.5" text-anchor="middle" dominant-baseline="central">-0.63</text><rect x="338.0" y="554" width="42" height="18" fill="#e9ecfb" stroke="#888" stroke-width="0.6"/><text class="cell" x="359.0" y="563.5" text-anchor="middle" dominant-baseline="central">-0.06</text><rect x="380.0" y="554" width="42" height="18" fill="#e6f5e6" stroke="#888" stroke-width="0.6"/><text class="cell" x="401.0" y="563.5" text-anchor="middle" dominant-baseline="central">0.62</text><rect x="422.0" y="554" width="42" height="18" fill="#e6f5e6" stroke="#888" stroke-width="0.6"/><text class="cell" x="443.0" y="563.5" text-anchor="middle" dominant-baseline="central">0.39</text><rect x="296.0" y="572" width="42" height="18" fill="#e9ecfb" stroke="#888" stroke-width="0.6"/><text class="cell" x="317.0" y="581.5" text-anchor="middle" dominant-baseline="central">-0.57</text><rect x="338.0" y="572" width="42" height="18" fill="#e9ecfb" stroke="#888" stroke-width="0.6"/><text class="cell" x="359.0" y="581.5" text-anchor="middle" dominant-baseline="central">-0.08</text><rect x="380.0" y="572" width="42" height="18" fill="#e6f5e6" stroke="#888" stroke-width="0.6"/><text class="cell" x="401.0" y="581.5" text-anchor="middle" dominant-baseline="central">0.55</text><rect x="422.0" y="572" width="42" height="18" fill="#e6f5e6" stroke="#888" stroke-width="0.6"/><text class="cell" x="443.0" y="581.5" text-anchor="middle" dominant-baseline="central">0.36</text><rect x="296.0" y="590" width="42" height="18" fill="#e9ecfb" stroke="#888" stroke-width="0.6"/><text class="cell" x="317.0" y="599.5" text-anchor="middle" dominant-baseline="central">-0.55</text><rect x="338.0" y="590" width="42" height="18" fill="#e9ecfb" stroke="#888" stroke-width="0.6"/><text class="cell" x="359.0" y="599.5" text-anchor="middle" dominant-baseline="central">-0.10</text><rect x="380.0" y="590" width="42" height="18" fill="#e6f5e6" stroke="#888" stroke-width="0.6"/><text class="cell" x="401.0" y="599.5" text-anchor="middle" dominant-baseline="central">0.53</text><rect x="422.0" y="590" width="42" height="18" fill="#e6f5e6" stroke="#888" stroke-width="0.6"/><text class="cell" x="443.0" y="599.5" text-anchor="middle" dominant-baseline="central">0.34</text><rect x="296.0" y="608" width="42" height="18" fill="#e9ecfb" stroke="#888" stroke-width="0.6"/><text class="cell" x="317.0" y="617.5" text-anchor="middle" dominant-baseline="central">-0.53</text><rect x="338.0" y="608" width="42" height="18" fill="#e9ecfb" stroke="#888" stroke-width="0.6"/><text class="cell" x="359.0" y="617.5" text-anchor="middle" dominant-baseline="central">-0.11</text><rect x="380.0" y="608" width="42" height="18" fill="#e6f5e6" stroke="#888" stroke-width="0.6"/><text class="cell" x="401.0" y="617.5" text-anchor="middle" dominant-baseline="central">0.51</text><rect x="422.0" y="608" width="42" height="18" fill="#e6f5e6" stroke="#888" stroke-width="0.6"/><text class="cell" x="443.0" y="617.5" text-anchor="middle" dominant-baseline="central">0.35</text><rect x="296.0" y="518" width="168" height="108" fill="none" stroke="#888" stroke-width="1.4"/></g><rect x="296.0" y="536" width="168" height="18" fill="#ffd54f" fill-opacity="0.30" stroke="#d59a2f" stroke-width="2"/><text class="idx" style="font-weight:400;fill:#999" x="290.0" y="527.5" text-anchor="end" dominant-baseline="central">0</text><text class="idx" style="font-weight:700;fill:#d59a2f" x="290.0" y="545.5" text-anchor="end" dominant-baseline="central">1</text><text class="idx" style="font-weight:400;fill:#999" x="290.0" y="563.5" text-anchor="end" dominant-baseline="central">2</text><text class="idx" style="font-weight:400;fill:#999" x="290.0" y="581.5" text-anchor="end" dominant-baseline="central">3</text><text class="idx" style="font-weight:400;fill:#999" x="290.0" y="599.5" text-anchor="end" dominant-baseline="central">4</text><text class="idx" style="font-weight:400;fill:#999" x="290.0" y="617.5" text-anchor="end" dominant-baseline="central">5</text>
<text class="mini" style="fill:#5b6ee0" x="317.0" y="514" text-anchor="middle">0</text>
<text class="mini" style="fill:#5b6ee0" x="359.0" y="514" text-anchor="middle">1</text>
<text class="mini" style="fill:#3f9142" x="401.0" y="514" text-anchor="middle">2</text>
<text class="mini" style="fill:#3f9142" x="443.0" y="514" text-anchor="middle">3</text>
<text class="mini" style="fill:#5b6ee0" x="338.0" y="639" text-anchor="middle">[..., 0:2] = head0</text>
<text class="mini" style="fill:#3f9142" x="422.0" y="639" text-anchor="middle">[..., 2:4] = head1</text>
<text class="lab" x="380" y="656" text-anchor="middle">output</text>
<text class="dim" x="380" y="672" text-anchor="middle">(2, 6, 4) · features = num_heads × d_out = 2 × 2</text>
<text class="code" x="490.0" y="545.5" dominant-baseline="central" fill="#b5791f">◄ out[:, 1, :] = [-0.59, 0.01 | 0.59, 0.33]</text>
<rect x="40" y="688" width="680" height="86" rx="8" fill="#eef4fb" stroke="#7aa5d6" stroke-width="0.6"/>
<text class="lab" x="56" y="710" fill="#3a6ea5">Reading the index</text>
<text class="ts" x="56" y="730">out[b, t, :] picks one token: b = which sequence (0/1), t = token id (0–5), last axis = its features.</text>
<text class="ts" x="56" y="748">Its 4 features are head0’s 2 outputs then head1’s 2 outputs — that is what cat(dim=-1) built.</text>
<text class="ts" x="56" y="766">Both batch slices are identical here only because batch = 2 copies of the same sentence.</text>
<rect x="40" y="792" width="680" height="286" rx="8" fill="#fbf6ec" stroke="#d59a2f" stroke-width="0.6"/>
<text class="lab" x="56" y="814" fill="#b5791f">Is 2×6×4 the final output? Not in a real model.</text>
<text class="ts" x="56" y="834">GPT stacks many blocks in a loop (x = layer(x)), each running one multi-head attention.</text>
<text class="ts" x="56" y="856">1. Each block must return the same shape it received, (seq_len × d_model) — here (6 × 3).</text>
<text class="dim" x="72" y="872">seq_len is always preserved; d_model is the dimension that isn’t automatically preserved, so it’s on you to control it.</text>
<text class="ts" x="56" y="894">2. Each block also does a residual add x + attn(x), and adding needs equal widths</text>
<text class="dim" x="72" y="910">(same rule as ch2’s token + positional embeddings).</text>
<text class="ts" x="56" y="932">3. But this wrapper widened it to num_heads × d_out = 4 — so (6×4) can’t re-enter the loop or be added</text>
<text class="ts" x="56" y="948">back. It must return to d_model. Two ways:</text>
<text class="ts" x="56" y="976"><tspan style="font-weight:600">Option 1 · split:</tspan> each head makes d_out / num_heads, so concat already = d_model (no extra matrix).</text>
<text class="dim" x="72" y="992">here: head_dim = 2 / 2 = 1 → each head 2×6×1 → concat 2×6×2.</text>
<text class="ts" x="56" y="1016"><tspan style="font-weight:600">Option 2 · project:</tspan> keep concat 2×6×4, then matmul each slice by W_o (concat × d_model).</text>
<text class="dim" x="72" y="1032">toy: W_o = 4×2 → 2×6×2.    real (d_model=3): W_o = 4×3 → 2×6×3.</text>
<text class="dim" x="56" y="1058" style="fill:#b5791f">Real transformers do both: split (concat = d_model) + square W_o (d_model × d_model) to mix the heads.</text>
</svg>