<svg width="100%" viewBox="0 0 800 1510" role="img" xmlns="http://www.w3.org/2000/svg">
<defs><marker id="arrow" viewBox="0 0 10 10" refX="8" refY="5"
markerWidth="6" markerHeight="6" orient="auto-start-reverse">
<path d="M2 1L8 5L2 9" fill="none" stroke="#555" stroke-width="1.5"
stroke-linecap="round" stroke-linejoin="round"/></marker></defs>
<style>
.th{font:600 15px sans-serif;fill:#1a1a1a;}
.ts{font:12px sans-serif;fill:#333;}
.step{font:600 13px sans-serif;fill:#1a1a1a;}
.lab{font:600 12px sans-serif;fill:#1a1a1a;}
.dim{font:11px sans-serif;fill:#666;}
.cell{font:10px monospace;fill:#333;}
.tok{font:10px sans-serif;fill:#555;}
.op{font:600 14px sans-serif;fill:#555;}
.mini{font:9px sans-serif;fill:#999;}
</style>
<text class="th" x="400" y="28" text-anchor="middle">Combined multi-head attention (§3.6.2) — one wide projection, split into heads</text>
<text class="ts" x="400" y="46" text-anchor="middle">(batch axis omitted, exactly as v4 does — one sequence of 6 tokens; K and V flow the same as Q.)</text>
<rect x="40" y="58" width="720" height="150" rx="8" fill="#f4f1fb" stroke="#9a86d6" stroke-width="0.8"/>
<text class="lab" x="56" y="78" fill="#5b46a5">The big idea</text>
<text class="ts" x="56" y="96">The wrapper stacked N separate attention modules side by side, each with its own small weight matrices,</text>
<text class="ts" x="56" y="112">then concatenated their outputs. This version does the identical math in one shot.</text>
<text class="ts" x="56" y="132">Instead of giving each head its own small W_q that produces 2 columns, we use one big W_q that produces</text>
<text class="ts" x="56" y="148">all the heads’ columns at once — here 4 columns (2 heads × 2 columns each). That’s what “wide” means:</text>
<text class="ts" x="56" y="164">the projection output has num_heads × head_dim columns in a single matrix, not split across per-head matrices.</text>
<text class="ts" x="56" y="184">Then we don’t run N modules — we just slice those 4 columns back into 2 heads of 2 and carry on.</text>
<text class="ts" x="56" y="200">Same numbers, one set of weights, far fewer operations.</text>
<g transform="translate(0,130)">
<text class="step" x="40" y="98">1 · One wide projection:  Q = X · W_q</text>
<text class="dim" x="40" y="114">Multiply the 6 tokens (6×3) by one weight matrix W_q (3×4) → Q (6×4). Each row is one token’s query, now 4 numbers wide.</text>
<text class="dim" x="40" y="130">The 4 columns already hold both heads (blue = head 0, green = head 1) — still one matrix; we split them in step 2.</text>
<text class="tok" x="90" y="174" text-anchor="end">Your</text><text class="tok" x="90" y="194" text-anchor="end">journey</text><text class="tok" x="90" y="214" text-anchor="end">starts</text><text class="tok" x="90" y="234" text-anchor="end">with</text><text class="tok" x="90" y="254" text-anchor="end">one</text><text class="tok" x="90" y="274" text-anchor="end">step</text>
<rect x="96" y="160" width="42" height="20" fill="#eef0f4" stroke="#8a93a6" stroke-width="0.6"/><text class="cell" x="117" y="174" text-anchor="middle">0.43</text><rect x="138" y="160" width="42" height="20" fill="#eef0f4" stroke="#8a93a6" stroke-width="0.6"/><text class="cell" x="159" y="174" text-anchor="middle">0.15</text><rect x="180" y="160" width="42" height="20" fill="#eef0f4" stroke="#8a93a6" stroke-width="0.6"/><text class="cell" x="201" y="174" text-anchor="middle">0.89</text><rect x="96" y="180" width="42" height="20" fill="#eef0f4" stroke="#8a93a6" stroke-width="0.6"/><text class="cell" x="117" y="194" text-anchor="middle">0.55</text><rect x="138" y="180" width="42" height="20" fill="#eef0f4" stroke="#8a93a6" stroke-width="0.6"/><text class="cell" x="159" y="194" text-anchor="middle">0.87</text><rect x="180" y="180" width="42" height="20" fill="#eef0f4" stroke="#8a93a6" stroke-width="0.6"/><text class="cell" x="201" y="194" text-anchor="middle">0.66</text><rect x="96" y="200" width="42" height="20" fill="#eef0f4" stroke="#8a93a6" stroke-width="0.6"/><text class="cell" x="117" y="214" text-anchor="middle">0.57</text><rect x="138" y="200" width="42" height="20" fill="#eef0f4" stroke="#8a93a6" stroke-width="0.6"/><text class="cell" x="159" y="214" text-anchor="middle">0.85</text><rect x="180" y="200" width="42" height="20" fill="#eef0f4" stroke="#8a93a6" stroke-width="0.6"/><text class="cell" x="201" y="214" text-anchor="middle">0.64</text><rect x="96" y="220" width="42" height="20" fill="#eef0f4" stroke="#8a93a6" stroke-width="0.6"/><text class="cell" x="117" y="234" text-anchor="middle">0.22</text><rect x="138" y="220" width="42" height="20" fill="#eef0f4" stroke="#8a93a6" stroke-width="0.6"/><text class="cell" x="159" y="234" text-anchor="middle">0.58</text><rect x="180" y="220" width="42" height="20" fill="#eef0f4" stroke="#8a93a6" stroke-width="0.6"/><text class="cell" x="201" y="234" text-anchor="middle">0.33</text><rect x="96" y="240" width="42" height="20" fill="#eef0f4" stroke="#8a93a6" stroke-width="0.6"/><text class="cell" x="117" y="254" text-anchor="middle">0.77</text><rect x="138" y="240" width="42" height="20" fill="#eef0f4" stroke="#8a93a6" stroke-width="0.6"/><text class="cell" x="159" y="254" text-anchor="middle">0.25</text><rect x="180" y="240" width="42" height="20" fill="#eef0f4" stroke="#8a93a6" stroke-width="0.6"/><text class="cell" x="201" y="254" text-anchor="middle">0.10</text><rect x="96" y="260" width="42" height="20" fill="#eef0f4" stroke="#8a93a6" stroke-width="0.6"/><text class="cell" x="117" y="274" text-anchor="middle">0.05</text><rect x="138" y="260" width="42" height="20" fill="#eef0f4" stroke="#8a93a6" stroke-width="0.6"/><text class="cell" x="159" y="274" text-anchor="middle">0.80</text><rect x="180" y="260" width="42" height="20" fill="#eef0f4" stroke="#8a93a6" stroke-width="0.6"/><text class="cell" x="201" y="274" text-anchor="middle">0.55</text><rect x="96" y="160" width="126" height="120" fill="none" stroke="#8a93a6" stroke-width="1.4"/>
<text class="lab" x="159" y="300" text-anchor="middle">X  (6×3)</text>
<text class="op" x="240" y="218">· W_q(3×4) →</text>
<rect x="356" y="160" width="42" height="20" fill="#e9ecfb" stroke="#8a93a6" stroke-width="0.6"/><text class="cell" x="377" y="174" text-anchor="middle">0.40</text><rect x="398" y="160" width="42" height="20" fill="#e9ecfb" stroke="#8a93a6" stroke-width="0.6"/><text class="cell" x="419" y="174" text-anchor="middle">0.39</text><rect x="440" y="160" width="42" height="20" fill="#e6f5e6" stroke="#8a93a6" stroke-width="0.6"/><text class="cell" x="461" y="174" text-anchor="middle">0.55</text><rect x="482" y="160" width="42" height="20" fill="#e6f5e6" stroke="#8a93a6" stroke-width="0.6"/><text class="cell" x="503" y="174" text-anchor="middle">0.21</text><rect x="356" y="180" width="42" height="20" fill="#e9ecfb" stroke="#8a93a6" stroke-width="0.6"/><text class="cell" x="377" y="194" text-anchor="middle">0.61</text><rect x="398" y="180" width="42" height="20" fill="#e9ecfb" stroke="#8a93a6" stroke-width="0.6"/><text class="cell" x="419" y="194" text-anchor="middle">0.69</text><rect x="440" y="180" width="42" height="20" fill="#e6f5e6" stroke="#8a93a6" stroke-width="0.6"/><text class="cell" x="461" y="194" text-anchor="middle">0.48</text><rect x="482" y="180" width="42" height="20" fill="#e6f5e6" stroke="#8a93a6" stroke-width="0.6"/><text class="cell" x="503" y="194" text-anchor="middle">0.33</text><rect x="356" y="200" width="42" height="20" fill="#e9ecfb" stroke="#8a93a6" stroke-width="0.6"/><text class="cell" x="377" y="214" text-anchor="middle">0.61</text><rect x="398" y="200" width="42" height="20" fill="#e9ecfb" stroke="#8a93a6" stroke-width="0.6"/><text class="cell" x="419" y="214" text-anchor="middle">0.67</text><rect x="440" y="200" width="42" height="20" fill="#e6f5e6" stroke="#8a93a6" stroke-width="0.6"/><text class="cell" x="461" y="214" text-anchor="middle">0.47</text><rect x="482" y="200" width="42" height="20" fill="#e6f5e6" stroke="#8a93a6" stroke-width="0.6"/><text class="cell" x="503" y="214" text-anchor="middle">0.31</text><rect x="356" y="220" width="42" height="20" fill="#e9ecfb" stroke="#8a93a6" stroke-width="0.6"/><text class="cell" x="377" y="234" text-anchor="middle">0.33</text><rect x="398" y="220" width="42" height="20" fill="#e9ecfb" stroke="#8a93a6" stroke-width="0.6"/><text class="cell" x="419" y="234" text-anchor="middle">0.41</text><rect x="440" y="220" width="42" height="20" fill="#e6f5e6" stroke="#8a93a6" stroke-width="0.6"/><text class="cell" x="461" y="234" text-anchor="middle">0.29</text><rect x="482" y="220" width="42" height="20" fill="#e6f5e6" stroke="#8a93a6" stroke-width="0.6"/><text class="cell" x="503" y="234" text-anchor="middle">0.18</text><rect x="356" y="240" width="42" height="20" fill="#e9ecfb" stroke="#8a93a6" stroke-width="0.6"/><text class="cell" x="377" y="254" text-anchor="middle">0.40</text><rect x="398" y="240" width="42" height="20" fill="#e9ecfb" stroke="#8a93a6" stroke-width="0.6"/><text class="cell" x="419" y="254" text-anchor="middle">0.23</text><rect x="440" y="240" width="42" height="20" fill="#e6f5e6" stroke="#8a93a6" stroke-width="0.6"/><text class="cell" x="461" y="254" text-anchor="middle">0.31</text><rect x="482" y="240" width="42" height="20" fill="#e6f5e6" stroke="#8a93a6" stroke-width="0.6"/><text class="cell" x="503" y="254" text-anchor="middle">0.12</text><rect x="356" y="260" width="42" height="20" fill="#e9ecfb" stroke="#8a93a6" stroke-width="0.6"/><text class="cell" x="377" y="274" text-anchor="middle">0.37</text><rect x="398" y="260" width="42" height="20" fill="#e9ecfb" stroke="#8a93a6" stroke-width="0.6"/><text class="cell" x="419" y="274" text-anchor="middle">0.57</text><rect x="440" y="260" width="42" height="20" fill="#e6f5e6" stroke="#8a93a6" stroke-width="0.6"/><text class="cell" x="461" y="274" text-anchor="middle">0.42</text><rect x="482" y="260" width="42" height="20" fill="#e6f5e6" stroke="#8a93a6" stroke-width="0.6"/><text class="cell" x="503" y="274" text-anchor="middle">0.27</text><rect x="356" y="160" width="168" height="120" fill="none" stroke="#8a93a6" stroke-width="1.4"/>
<text class="lab" x="440" y="300" text-anchor="middle">Q  (6×4)</text>
<g transform="translate(0,44)">
<text class="step" x="40" y="300">2 · <tspan font-family="monospace">.view(6, 2, 2)</tspan> — split each token’s 4 numbers into a 2×2 (rows = heads, cols = head_dim)</text>
<text class="dim" x="40" y="316">No number moves — shape (6, 2, 2) is one 2×2 block per token. Grouped by token, not yet by head.</text>
<g opacity="0.9"><rect x="378" y="340" width="46" height="26" fill="#e9ecfb" stroke="#8a93a6" stroke-width="0.6"/><text class="cell" x="401" y="357" text-anchor="middle">0.37</text><rect x="424" y="340" width="46" height="26" fill="#e9ecfb" stroke="#8a93a6" stroke-width="0.6"/><text class="cell" x="447" y="357" text-anchor="middle">0.57</text><rect x="378" y="366" width="46" height="26" fill="#e6f5e6" stroke="#8a93a6" stroke-width="0.6"/><text class="cell" x="401" y="383" text-anchor="middle">0.42</text><rect x="424" y="366" width="46" height="26" fill="#e6f5e6" stroke="#8a93a6" stroke-width="0.6"/><text class="cell" x="447" y="383" text-anchor="middle">0.27</text><rect x="378" y="340" width="92" height="52" fill="none" stroke="#8a93a6" stroke-width="1.4"/></g>
<g opacity="0.6"><rect x="302" y="370" width="46" height="26" fill="#e9ecfb" stroke="#8a93a6" stroke-width="0.6"/><text class="cell" x="325" y="387" text-anchor="middle">·</text><rect x="348" y="370" width="46" height="26" fill="#e9ecfb" stroke="#8a93a6" stroke-width="0.6"/><text class="cell" x="371" y="387" text-anchor="middle">·</text><rect x="302" y="396" width="46" height="26" fill="#e6f5e6" stroke="#8a93a6" stroke-width="0.6"/><text class="cell" x="325" y="413" text-anchor="middle">·</text><rect x="348" y="396" width="46" height="26" fill="#e6f5e6" stroke="#8a93a6" stroke-width="0.6"/><text class="cell" x="371" y="413" text-anchor="middle">·</text><rect x="302" y="370" width="92" height="52" fill="none" stroke="#8a93a6" stroke-width="1.4"/></g>
<g opacity="0.9"><rect x="226" y="400" width="46" height="26" fill="#e9ecfb" stroke="#8a93a6" stroke-width="0.6"/><text class="cell" x="249" y="417" text-anchor="middle">0.61</text><rect x="272" y="400" width="46" height="26" fill="#e9ecfb" stroke="#8a93a6" stroke-width="0.6"/><text class="cell" x="295" y="417" text-anchor="middle">0.69</text><rect x="226" y="426" width="46" height="26" fill="#e6f5e6" stroke="#8a93a6" stroke-width="0.6"/><text class="cell" x="249" y="443" text-anchor="middle">0.48</text><rect x="272" y="426" width="46" height="26" fill="#e6f5e6" stroke="#8a93a6" stroke-width="0.6"/><text class="cell" x="295" y="443" text-anchor="middle">0.33</text><rect x="226" y="400" width="92" height="52" fill="none" stroke="#8a93a6" stroke-width="1.4"/></g>
<g opacity="1.0"><rect x="150" y="430" width="46" height="26" fill="#e9ecfb" stroke="#8a93a6" stroke-width="0.6"/><text class="cell" x="173" y="447" text-anchor="middle">0.40</text><rect x="196" y="430" width="46" height="26" fill="#e9ecfb" stroke="#8a93a6" stroke-width="0.6"/><text class="cell" x="219" y="447" text-anchor="middle">0.39</text><rect x="150" y="456" width="46" height="26" fill="#e6f5e6" stroke="#8a93a6" stroke-width="0.6"/><text class="cell" x="173" y="473" text-anchor="middle">0.55</text><rect x="196" y="456" width="46" height="26" fill="#e6f5e6" stroke="#8a93a6" stroke-width="0.6"/><text class="cell" x="219" y="473" text-anchor="middle">0.21</text><rect x="150" y="430" width="92" height="52" fill="none" stroke="#8a93a6" stroke-width="1.4"/></g>
<text class="lab" x="196" y="425" text-anchor="middle">Your</text>
<text class="lab" x="272" y="395" text-anchor="middle">journey</text>
<text class="lab" x="348" y="365" text-anchor="middle">…</text>
<text class="lab" x="424" y="335" text-anchor="middle">step</text>
<text class="dim" x="144" y="447" text-anchor="end" fill="#5b6ee0">head 0 →</text>
<text class="dim" x="144" y="473" text-anchor="end" fill="#3f9142">head 1 →</text>
<text class="mini" x="264" y="502" text-anchor="middle">6 blocks total · 4 shown</text>
<text class="step" x="40" y="536">3 · <tspan font-family="monospace">.transpose(1, 2)</tspan> — regroup by head: two independent 6×2 matrices</text>
<text class="dim" x="40" y="552">Collect row 0 (head 0) from every block → head 0’s 6×2; row 1 → head 1’s 6×2. Each head is now a self-contained 6×2 — QKV v4’s shape.</text>
<text class="tok" x="184" y="590" text-anchor="end">Your</text><text class="tok" x="184" y="610" text-anchor="end">journey</text><text class="tok" x="184" y="630" text-anchor="end">starts</text><text class="tok" x="184" y="650" text-anchor="end">with</text><text class="tok" x="184" y="670" text-anchor="end">one</text><text class="tok" x="184" y="690" text-anchor="end">step</text>
<text class="lab" x="232" y="570" text-anchor="middle" fill="#5b6ee0">head 0  (6×2)</text>
<rect x="190" y="576" width="42" height="20" fill="#e9ecfb" stroke="#5b6ee0" stroke-width="0.6"/><text class="cell" x="211" y="590" text-anchor="middle">0.40</text><rect x="232" y="576" width="42" height="20" fill="#e9ecfb" stroke="#5b6ee0" stroke-width="0.6"/><text class="cell" x="253" y="590" text-anchor="middle">0.39</text><rect x="190" y="596" width="42" height="20" fill="#e9ecfb" stroke="#5b6ee0" stroke-width="0.6"/><text class="cell" x="211" y="610" text-anchor="middle">0.61</text><rect x="232" y="596" width="42" height="20" fill="#e9ecfb" stroke="#5b6ee0" stroke-width="0.6"/><text class="cell" x="253" y="610" text-anchor="middle">0.69</text><rect x="190" y="616" width="42" height="20" fill="#e9ecfb" stroke="#5b6ee0" stroke-width="0.6"/><text class="cell" x="211" y="630" text-anchor="middle">0.61</text><rect x="232" y="616" width="42" height="20" fill="#e9ecfb" stroke="#5b6ee0" stroke-width="0.6"/><text class="cell" x="253" y="630" text-anchor="middle">0.67</text><rect x="190" y="636" width="42" height="20" fill="#e9ecfb" stroke="#5b6ee0" stroke-width="0.6"/><text class="cell" x="211" y="650" text-anchor="middle">0.33</text><rect x="232" y="636" width="42" height="20" fill="#e9ecfb" stroke="#5b6ee0" stroke-width="0.6"/><text class="cell" x="253" y="650" text-anchor="middle">0.41</text><rect x="190" y="656" width="42" height="20" fill="#e9ecfb" stroke="#5b6ee0" stroke-width="0.6"/><text class="cell" x="211" y="670" text-anchor="middle">0.40</text><rect x="232" y="656" width="42" height="20" fill="#e9ecfb" stroke="#5b6ee0" stroke-width="0.6"/><text class="cell" x="253" y="670" text-anchor="middle">0.23</text><rect x="190" y="676" width="42" height="20" fill="#e9ecfb" stroke="#5b6ee0" stroke-width="0.6"/><text class="cell" x="211" y="690" text-anchor="middle">0.37</text><rect x="232" y="676" width="42" height="20" fill="#e9ecfb" stroke="#5b6ee0" stroke-width="0.6"/><text class="cell" x="253" y="690" text-anchor="middle">0.57</text><rect x="190" y="576" width="84" height="120" fill="none" stroke="#5b6ee0" stroke-width="1.4"/>
<text class="lab" x="472" y="570" text-anchor="middle" fill="#3f9142">head 1  (6×2)</text>
<rect x="430" y="576" width="42" height="20" fill="#e6f5e6" stroke="#3f9142" stroke-width="0.6"/><text class="cell" x="451" y="590" text-anchor="middle">0.55</text><rect x="472" y="576" width="42" height="20" fill="#e6f5e6" stroke="#3f9142" stroke-width="0.6"/><text class="cell" x="493" y="590" text-anchor="middle">0.21</text><rect x="430" y="596" width="42" height="20" fill="#e6f5e6" stroke="#3f9142" stroke-width="0.6"/><text class="cell" x="451" y="610" text-anchor="middle">0.48</text><rect x="472" y="596" width="42" height="20" fill="#e6f5e6" stroke="#3f9142" stroke-width="0.6"/><text class="cell" x="493" y="610" text-anchor="middle">0.33</text><rect x="430" y="616" width="42" height="20" fill="#e6f5e6" stroke="#3f9142" stroke-width="0.6"/><text class="cell" x="451" y="630" text-anchor="middle">0.47</text><rect x="472" y="616" width="42" height="20" fill="#e6f5e6" stroke="#3f9142" stroke-width="0.6"/><text class="cell" x="493" y="630" text-anchor="middle">0.31</text><rect x="430" y="636" width="42" height="20" fill="#e6f5e6" stroke="#3f9142" stroke-width="0.6"/><text class="cell" x="451" y="650" text-anchor="middle">0.29</text><rect x="472" y="636" width="42" height="20" fill="#e6f5e6" stroke="#3f9142" stroke-width="0.6"/><text class="cell" x="493" y="650" text-anchor="middle">0.18</text><rect x="430" y="656" width="42" height="20" fill="#e6f5e6" stroke="#3f9142" stroke-width="0.6"/><text class="cell" x="451" y="670" text-anchor="middle">0.31</text><rect x="472" y="656" width="42" height="20" fill="#e6f5e6" stroke="#3f9142" stroke-width="0.6"/><text class="cell" x="493" y="670" text-anchor="middle">0.12</text><rect x="430" y="676" width="42" height="20" fill="#e6f5e6" stroke="#3f9142" stroke-width="0.6"/><text class="cell" x="451" y="690" text-anchor="middle">0.42</text><rect x="472" y="676" width="42" height="20" fill="#e6f5e6" stroke="#3f9142" stroke-width="0.6"/><text class="cell" x="493" y="690" text-anchor="middle">0.27</text><rect x="430" y="576" width="84" height="120" fill="none" stroke="#3f9142" stroke-width="1.4"/>
<text class="step" x="40" y="724">4 · Each head runs the QKV v4 flow on its own K, V — all heads in one batched matmul</text>
<rect x="60" y="736" width="600" height="40" rx="8" fill="#f7f8fb" stroke="#c9cfdd" stroke-width="0.8"/>
<text class="ts" x="360" y="761" text-anchor="middle" font-family="monospace">Q·Kᵀ → scores(6×6) → mask → softmax → ·V → context(6×2)   — per head</text>
<text class="step" x="40" y="816">5 · <tspan font-family="monospace">.transpose(1,2).reshape(6, 4)</tspan> — glue heads back (this IS the wrapper’s concat)</text>
<text class="dim" x="40" y="832">The two 6×2 head contexts slot back into one 6×4 matrix, head 0’s columns then head 1’s.</text>
<text class="tok" x="256" y="864" text-anchor="end">Your</text><text class="tok" x="256" y="884" text-anchor="end">journey</text><text class="tok" x="256" y="904" text-anchor="end">starts</text><text class="tok" x="256" y="924" text-anchor="end">with</text><text class="tok" x="256" y="944" text-anchor="end">one</text><text class="tok" x="256" y="964" text-anchor="end">step</text>
<text class="lab" x="304" y="844" text-anchor="middle" fill="#5b6ee0">head 0</text>
<text class="lab" x="388" y="844" text-anchor="middle" fill="#3f9142">head 1</text>
<rect x="262" y="850" width="42" height="20" fill="#e9ecfb" stroke="#8a93a6" stroke-width="0.6"/><text class="cell" x="283" y="864" text-anchor="middle">0.31</text><rect x="304" y="850" width="42" height="20" fill="#e9ecfb" stroke="#8a93a6" stroke-width="0.6"/><text class="cell" x="325" y="864" text-anchor="middle">0.44</text><rect x="346" y="850" width="42" height="20" fill="#e6f5e6" stroke="#8a93a6" stroke-width="0.6"/><text class="cell" x="367" y="864" text-anchor="middle">0.52</text><rect x="388" y="850" width="42" height="20" fill="#e6f5e6" stroke="#8a93a6" stroke-width="0.6"/><text class="cell" x="409" y="864" text-anchor="middle">0.29</text><rect x="262" y="870" width="42" height="20" fill="#e9ecfb" stroke="#8a93a6" stroke-width="0.6"/><text class="cell" x="283" y="884" text-anchor="middle">0.40</text><rect x="304" y="870" width="42" height="20" fill="#e9ecfb" stroke="#8a93a6" stroke-width="0.6"/><text class="cell" x="325" y="884" text-anchor="middle">0.58</text><rect x="346" y="870" width="42" height="20" fill="#e6f5e6" stroke="#8a93a6" stroke-width="0.6"/><text class="cell" x="367" y="884" text-anchor="middle">0.49</text><rect x="388" y="870" width="42" height="20" fill="#e6f5e6" stroke="#8a93a6" stroke-width="0.6"/><text class="cell" x="409" y="884" text-anchor="middle">0.34</text><rect x="262" y="890" width="42" height="20" fill="#e9ecfb" stroke="#8a93a6" stroke-width="0.6"/><text class="cell" x="283" y="904" text-anchor="middle">0.39</text><rect x="304" y="890" width="42" height="20" fill="#e9ecfb" stroke="#8a93a6" stroke-width="0.6"/><text class="cell" x="325" y="904" text-anchor="middle">0.57</text><rect x="346" y="890" width="42" height="20" fill="#e6f5e6" stroke="#8a93a6" stroke-width="0.6"/><text class="cell" x="367" y="904" text-anchor="middle">0.48</text><rect x="388" y="890" width="42" height="20" fill="#e6f5e6" stroke="#8a93a6" stroke-width="0.6"/><text class="cell" x="409" y="904" text-anchor="middle">0.33</text><rect x="262" y="910" width="42" height="20" fill="#e9ecfb" stroke="#8a93a6" stroke-width="0.6"/><text class="cell" x="283" y="924" text-anchor="middle">0.28</text><rect x="304" y="910" width="42" height="20" fill="#e9ecfb" stroke="#8a93a6" stroke-width="0.6"/><text class="cell" x="325" y="924" text-anchor="middle">0.41</text><rect x="346" y="910" width="42" height="20" fill="#e6f5e6" stroke="#8a93a6" stroke-width="0.6"/><text class="cell" x="367" y="924" text-anchor="middle">0.44</text><rect x="388" y="910" width="42" height="20" fill="#e6f5e6" stroke="#8a93a6" stroke-width="0.6"/><text class="cell" x="409" y="924" text-anchor="middle">0.27</text><rect x="262" y="930" width="42" height="20" fill="#e9ecfb" stroke="#8a93a6" stroke-width="0.6"/><text class="cell" x="283" y="944" text-anchor="middle">0.25</text><rect x="304" y="930" width="42" height="20" fill="#e9ecfb" stroke="#8a93a6" stroke-width="0.6"/><text class="cell" x="325" y="944" text-anchor="middle">0.33</text><rect x="346" y="930" width="42" height="20" fill="#e6f5e6" stroke="#8a93a6" stroke-width="0.6"/><text class="cell" x="367" y="944" text-anchor="middle">0.41</text><rect x="388" y="930" width="42" height="20" fill="#e6f5e6" stroke="#8a93a6" stroke-width="0.6"/><text class="cell" x="409" y="944" text-anchor="middle">0.22</text><rect x="262" y="950" width="42" height="20" fill="#e9ecfb" stroke="#8a93a6" stroke-width="0.6"/><text class="cell" x="283" y="964" text-anchor="middle">0.34</text><rect x="304" y="950" width="42" height="20" fill="#e9ecfb" stroke="#8a93a6" stroke-width="0.6"/><text class="cell" x="325" y="964" text-anchor="middle">0.50</text><rect x="346" y="950" width="42" height="20" fill="#e6f5e6" stroke="#8a93a6" stroke-width="0.6"/><text class="cell" x="367" y="964" text-anchor="middle">0.46</text><rect x="388" y="950" width="42" height="20" fill="#e6f5e6" stroke="#8a93a6" stroke-width="0.6"/><text class="cell" x="409" y="964" text-anchor="middle">0.31</text><rect x="262" y="850" width="168" height="120" fill="none" stroke="#8a93a6" stroke-width="1.4"/><line x1="346" y1="850" x2="346" y2="970" stroke="#555" stroke-width="2.4"/>
<text class="lab" x="346" y="990" text-anchor="middle">context  (6×4)</text>
<text class="step" x="40" y="1024">6 · <tspan font-family="monospace">out_proj</tspan>: a final W_o (4×4) mixes information across heads</text>
<text class="dim" x="40" y="1040">The wrapper had no such step — this linear layer lets the heads talk to each other. Output shape = input shape (6×4).</text>
<text class="tok" x="124" y="1068" text-anchor="end">Your</text><text class="tok" x="124" y="1088" text-anchor="end">journey</text><text class="tok" x="124" y="1108" text-anchor="end">starts</text><text class="tok" x="124" y="1128" text-anchor="end">with</text><text class="tok" x="124" y="1148" text-anchor="end">one</text><text class="tok" x="124" y="1168" text-anchor="end">step</text>
<rect x="130" y="1054" width="42" height="20" fill="#e9ecfb" stroke="#8a93a6" stroke-width="0.6"/><text class="cell" x="151" y="1068" text-anchor="middle">0.31</text><rect x="172" y="1054" width="42" height="20" fill="#e9ecfb" stroke="#8a93a6" stroke-width="0.6"/><text class="cell" x="193" y="1068" text-anchor="middle">0.44</text><rect x="214" y="1054" width="42" height="20" fill="#e6f5e6" stroke="#8a93a6" stroke-width="0.6"/><text class="cell" x="235" y="1068" text-anchor="middle">0.52</text><rect x="256" y="1054" width="42" height="20" fill="#e6f5e6" stroke="#8a93a6" stroke-width="0.6"/><text class="cell" x="277" y="1068" text-anchor="middle">0.29</text><rect x="130" y="1074" width="42" height="20" fill="#e9ecfb" stroke="#8a93a6" stroke-width="0.6"/><text class="cell" x="151" y="1088" text-anchor="middle">0.40</text><rect x="172" y="1074" width="42" height="20" fill="#e9ecfb" stroke="#8a93a6" stroke-width="0.6"/><text class="cell" x="193" y="1088" text-anchor="middle">0.58</text><rect x="214" y="1074" width="42" height="20" fill="#e6f5e6" stroke="#8a93a6" stroke-width="0.6"/><text class="cell" x="235" y="1088" text-anchor="middle">0.49</text><rect x="256" y="1074" width="42" height="20" fill="#e6f5e6" stroke="#8a93a6" stroke-width="0.6"/><text class="cell" x="277" y="1088" text-anchor="middle">0.34</text><rect x="130" y="1094" width="42" height="20" fill="#e9ecfb" stroke="#8a93a6" stroke-width="0.6"/><text class="cell" x="151" y="1108" text-anchor="middle">0.39</text><rect x="172" y="1094" width="42" height="20" fill="#e9ecfb" stroke="#8a93a6" stroke-width="0.6"/><text class="cell" x="193" y="1108" text-anchor="middle">0.57</text><rect x="214" y="1094" width="42" height="20" fill="#e6f5e6" stroke="#8a93a6" stroke-width="0.6"/><text class="cell" x="235" y="1108" text-anchor="middle">0.48</text><rect x="256" y="1094" width="42" height="20" fill="#e6f5e6" stroke="#8a93a6" stroke-width="0.6"/><text class="cell" x="277" y="1108" text-anchor="middle">0.33</text><rect x="130" y="1114" width="42" height="20" fill="#e9ecfb" stroke="#8a93a6" stroke-width="0.6"/><text class="cell" x="151" y="1128" text-anchor="middle">0.28</text><rect x="172" y="1114" width="42" height="20" fill="#e9ecfb" stroke="#8a93a6" stroke-width="0.6"/><text class="cell" x="193" y="1128" text-anchor="middle">0.41</text><rect x="214" y="1114" width="42" height="20" fill="#e6f5e6" stroke="#8a93a6" stroke-width="0.6"/><text class="cell" x="235" y="1128" text-anchor="middle">0.44</text><rect x="256" y="1114" width="42" height="20" fill="#e6f5e6" stroke="#8a93a6" stroke-width="0.6"/><text class="cell" x="277" y="1128" text-anchor="middle">0.27</text><rect x="130" y="1134" width="42" height="20" fill="#e9ecfb" stroke="#8a93a6" stroke-width="0.6"/><text class="cell" x="151" y="1148" text-anchor="middle">0.25</text><rect x="172" y="1134" width="42" height="20" fill="#e9ecfb" stroke="#8a93a6" stroke-width="0.6"/><text class="cell" x="193" y="1148" text-anchor="middle">0.33</text><rect x="214" y="1134" width="42" height="20" fill="#e6f5e6" stroke="#8a93a6" stroke-width="0.6"/><text class="cell" x="235" y="1148" text-anchor="middle">0.41</text><rect x="256" y="1134" width="42" height="20" fill="#e6f5e6" stroke="#8a93a6" stroke-width="0.6"/><text class="cell" x="277" y="1148" text-anchor="middle">0.22</text><rect x="130" y="1154" width="42" height="20" fill="#e9ecfb" stroke="#8a93a6" stroke-width="0.6"/><text class="cell" x="151" y="1168" text-anchor="middle">0.34</text><rect x="172" y="1154" width="42" height="20" fill="#e9ecfb" stroke="#8a93a6" stroke-width="0.6"/><text class="cell" x="193" y="1168" text-anchor="middle">0.50</text><rect x="214" y="1154" width="42" height="20" fill="#e6f5e6" stroke="#8a93a6" stroke-width="0.6"/><text class="cell" x="235" y="1168" text-anchor="middle">0.46</text><rect x="256" y="1154" width="42" height="20" fill="#e6f5e6" stroke="#8a93a6" stroke-width="0.6"/><text class="cell" x="277" y="1168" text-anchor="middle">0.31</text><rect x="130" y="1054" width="168" height="120" fill="none" stroke="#8a93a6" stroke-width="1.4"/><line x1="214" y1="1054" x2="214" y2="1174" stroke="#555" stroke-width="2.4"/>
<text class="lab" x="214" y="1194" text-anchor="middle">context (6×4)</text>
<text class="op" x="314" y="1112">· W_o(4×4) →</text>
<rect x="430" y="1054" width="42" height="20" fill="#eef0f4" stroke="#8a93a6" stroke-width="0.6"/><text class="cell" x="451" y="1068" text-anchor="middle">0.31</text><rect x="472" y="1054" width="42" height="20" fill="#eef0f4" stroke="#8a93a6" stroke-width="0.6"/><text class="cell" x="493" y="1068" text-anchor="middle">0.44</text><rect x="514" y="1054" width="42" height="20" fill="#eef0f4" stroke="#8a93a6" stroke-width="0.6"/><text class="cell" x="535" y="1068" text-anchor="middle">0.52</text><rect x="556" y="1054" width="42" height="20" fill="#eef0f4" stroke="#8a93a6" stroke-width="0.6"/><text class="cell" x="577" y="1068" text-anchor="middle">0.29</text><rect x="430" y="1074" width="42" height="20" fill="#eef0f4" stroke="#8a93a6" stroke-width="0.6"/><text class="cell" x="451" y="1088" text-anchor="middle">0.40</text><rect x="472" y="1074" width="42" height="20" fill="#eef0f4" stroke="#8a93a6" stroke-width="0.6"/><text class="cell" x="493" y="1088" text-anchor="middle">0.58</text><rect x="514" y="1074" width="42" height="20" fill="#eef0f4" stroke="#8a93a6" stroke-width="0.6"/><text class="cell" x="535" y="1088" text-anchor="middle">0.49</text><rect x="556" y="1074" width="42" height="20" fill="#eef0f4" stroke="#8a93a6" stroke-width="0.6"/><text class="cell" x="577" y="1088" text-anchor="middle">0.34</text><rect x="430" y="1094" width="42" height="20" fill="#eef0f4" stroke="#8a93a6" stroke-width="0.6"/><text class="cell" x="451" y="1108" text-anchor="middle">0.39</text><rect x="472" y="1094" width="42" height="20" fill="#eef0f4" stroke="#8a93a6" stroke-width="0.6"/><text class="cell" x="493" y="1108" text-anchor="middle">0.57</text><rect x="514" y="1094" width="42" height="20" fill="#eef0f4" stroke="#8a93a6" stroke-width="0.6"/><text class="cell" x="535" y="1108" text-anchor="middle">0.48</text><rect x="556" y="1094" width="42" height="20" fill="#eef0f4" stroke="#8a93a6" stroke-width="0.6"/><text class="cell" x="577" y="1108" text-anchor="middle">0.33</text><rect x="430" y="1114" width="42" height="20" fill="#eef0f4" stroke="#8a93a6" stroke-width="0.6"/><text class="cell" x="451" y="1128" text-anchor="middle">0.28</text><rect x="472" y="1114" width="42" height="20" fill="#eef0f4" stroke="#8a93a6" stroke-width="0.6"/><text class="cell" x="493" y="1128" text-anchor="middle">0.41</text><rect x="514" y="1114" width="42" height="20" fill="#eef0f4" stroke="#8a93a6" stroke-width="0.6"/><text class="cell" x="535" y="1128" text-anchor="middle">0.44</text><rect x="556" y="1114" width="42" height="20" fill="#eef0f4" stroke="#8a93a6" stroke-width="0.6"/><text class="cell" x="577" y="1128" text-anchor="middle">0.27</text><rect x="430" y="1134" width="42" height="20" fill="#eef0f4" stroke="#8a93a6" stroke-width="0.6"/><text class="cell" x="451" y="1148" text-anchor="middle">0.25</text><rect x="472" y="1134" width="42" height="20" fill="#eef0f4" stroke="#8a93a6" stroke-width="0.6"/><text class="cell" x="493" y="1148" text-anchor="middle">0.33</text><rect x="514" y="1134" width="42" height="20" fill="#eef0f4" stroke="#8a93a6" stroke-width="0.6"/><text class="cell" x="535" y="1148" text-anchor="middle">0.41</text><rect x="556" y="1134" width="42" height="20" fill="#eef0f4" stroke="#8a93a6" stroke-width="0.6"/><text class="cell" x="577" y="1148" text-anchor="middle">0.22</text><rect x="430" y="1154" width="42" height="20" fill="#eef0f4" stroke="#8a93a6" stroke-width="0.6"/><text class="cell" x="451" y="1168" text-anchor="middle">0.34</text><rect x="472" y="1154" width="42" height="20" fill="#eef0f4" stroke="#8a93a6" stroke-width="0.6"/><text class="cell" x="493" y="1168" text-anchor="middle">0.50</text><rect x="514" y="1154" width="42" height="20" fill="#eef0f4" stroke="#8a93a6" stroke-width="0.6"/><text class="cell" x="535" y="1168" text-anchor="middle">0.46</text><rect x="556" y="1154" width="42" height="20" fill="#eef0f4" stroke="#8a93a6" stroke-width="0.6"/><text class="cell" x="577" y="1168" text-anchor="middle">0.31</text><rect x="430" y="1054" width="168" height="120" fill="none" stroke="#8a93a6" stroke-width="1.4"/>
<text class="lab" x="514" y="1194" text-anchor="middle">output (6×4)</text>
<rect x="40" y="1204" width="720" height="118" rx="8" fill="#eef4fb" stroke="#7aa5d6" stroke-width="0.8"/>
<text class="lab" x="56" y="1226" fill="#3a6ea5">Wrapper (3.6.1) vs combined (3.6.2) — same math</text>
<text class="ts" x="56" y="1246">• Wrapper: num_heads separate CausalAttention modules, each with its OWN small W_q,W_k,W_v; concat the outputs.</text>
<text class="ts" x="56" y="1264">• Combined: ONE big W_q,W_k,W_v; split the columns with .view, run all heads as a single batched matmul.</text>
<text class="ts" x="56" y="1282">• .view+.transpose replaces the module loop; .reshape replaces torch.cat; out_proj (W_o) is the new mixing step.</text>
<text class="ts" x="56" y="1300">• num_heads × head_dim = d_out, so the split is exact and the output width equals the input width.</text>
</g>
</g>
</svg>